<svg xmlns="http://www.w3.org/2000/svg" width="11" height="10" version="1.1"><defs id="materia"><style id="current-color-scheme" type="text/css">.ColorScheme-Highlight{color:#4285f4}.ColorScheme-Text{color:#dfdfdf}</style></defs><rect id="hint-tile-center" width="1" height="1" x="2" y="0" style="fill:#f0f"/><rect id="hint-bar-size" width="3" height="3" x="4" y="0" style="fill:#f0f"/><path id="bar-inactive-bottomright" d="m 10,9 v 1 h 1 V 9 Z" class="ColorScheme-Text" style="opacity:.12;fill:currentColor"/><path id="bar-inactive-right" d="m 10,7 v 1 h 1 V 7 Z" class="ColorScheme-Text" style="opacity:.12;fill:currentColor"/><path id="bar-inactive-topright" d="m 10,5 v 1 h 1 V 5 Z" class="ColorScheme-Text" style="opacity:.12;fill:currentColor"/><path id="bar-inactive-bottomleft" d="m 6,9 v 1 H 7 V 9 Z" class="ColorScheme-Text" style="opacity:.12;fill:currentColor"/><path id="bar-inactive-left" d="M 6,7 V 8 H 7 V 7 Z" class="ColorScheme-Text" style="opacity:.12;fill:currentColor"/><path id="bar-inactive-topleft" d="M 7,5 H 6 v 1 h 1 z" class="ColorScheme-Text" style="opacity:.12;fill:currentColor"/><path id="bar-inactive-bottom" d="m 8,9 v 1 H 9 V 9 Z" class="ColorScheme-Text" style="opacity:.12;fill:currentColor"/><path id="bar-inactive-center" d="M 9,7 H 8 v 1 h 1 z" class="ColorScheme-Text" style="opacity:.12;fill:currentColor"/><path id="bar-inactive-top" d="M 8,5 V 6 H 9 V 5 Z" class="ColorScheme-Text" style="opacity:.12;fill:currentColor"/><path id="bar-active-bottomright" d="m 4,9 v 1 H 5 V 9 Z" class="ColorScheme-Highlight" style="fill:currentColor"/><path id="bar-active-right" d="M 4,7 V 8 H 5 V 7 Z" class="ColorScheme-Highlight" style="fill:currentColor"/><path id="bar-active-topright" d="M 4,5 V 6 H 5 V 5 Z" class="ColorScheme-Highlight" style="fill:currentColor"/><path id="bar-active-bottomleft" d="m 0,9 v 1 H 1 V 9 Z" class="ColorScheme-Highlight" style="fill:currentColor"/><path id="bar-active-left" d="M 0,7 V 8 H 1 V 7 Z" class="ColorScheme-Highlight" style="fill:currentColor"/><path id="bar-active-topleft" d="M 1,5 H 0 v 1 h 1 z" class="ColorScheme-Highlight" style="fill:currentColor"/><path id="bar-active-bottom" d="m 2,9 v 1 H 3 V 9 Z" class="ColorScheme-Highlight" style="fill:currentColor"/><path id="bar-active-center" d="M 3,7 H 2 v 1 h 1 z" class="ColorScheme-Highlight" style="fill:currentColor"/><path id="bar-active-top" d="M 2,5 V 6 H 3 V 5 Z" class="ColorScheme-Highlight" style="fill:currentColor"/><rect id="hint-stretch-borders" width="1" height="1" x="1" y="0" style="fill:#f0f"/><rect id="hint-bar-stretch" width="1" height="1" x="0" y="0" style="fill:#f0f"/></svg>