<svg xmlns="http://www.w3.org/2000/svg" width="36" height="52" version="1"><defs id="materia"><style id="current-color-scheme" type="text/css">.ColorScheme-Highlight{color:#4285f4}</style></defs><rect id="hint-glow-radius" width="5" height="5" x="0" y="0" style="fill:#f0f"/><rect id="hint-stretch-borders" width="5" height="5" x="0" y="8" style="fill:#f0f"/><rect id="center" width="12" height="12" x="12" y="27" style="opacity:.01"/><g id="topleft"><path style="opacity:.25;fill:currentColor" d="M -21,38 C -21,26 -9,26 -9,26 v 12 z" class="ColorScheme-Highlight" transform="translate(21,-11)"/><path style="opacity:.5;fill:currentColor" d="m -18,38 c 0,-9 9,-9 9,-9 v 9 z" class="ColorScheme-Highlight" transform="translate(21,-11)"/><path style="fill:currentColor" d="m -15,38 c 0,-6 6,-6 6,-6 v 6 z" class="ColorScheme-Highlight" transform="translate(21,-11)"/></g><g id="topright"><path style="opacity:.25;fill:currentColor" d="M -21,38 C -21,26 -9,26 -9,26 v 12 z" class="ColorScheme-Highlight" transform="matrix(-1,0,0,1,15,-11)"/><path style="opacity:.5;fill:currentColor" d="m -18,38 c 0,-9 9,-9 9,-9 v 9 z" class="ColorScheme-Highlight" transform="matrix(-1,0,0,1,15,-11)"/><path style="fill:currentColor" d="m -15,38 c 0,-6 6,-6 6,-6 v 6 z" class="ColorScheme-Highlight" transform="matrix(-1,0,0,1,15,-11)"/></g><g id="top"><rect style="opacity:.25;fill:currentColor" width="12" height="12" x="12" y="15" class="ColorScheme-Highlight"/><rect style="opacity:.5;fill:currentColor" width="12" height="9" x="12" y="18" class="ColorScheme-Highlight"/><rect style="fill:currentColor" width="12" height="6" x="12" y="21" class="ColorScheme-Highlight"/></g><g id="bottomright"><path style="opacity:.25;fill:currentColor" d="M -21,38 C -21,26 -9,26 -9,26 v 12 z" class="ColorScheme-Highlight" transform="matrix(0,-1,-1,0,62,30)"/><path style="opacity:.5;fill:currentColor" d="m -18,38 c 0,-9 9,-9 9,-9 v 9 z" class="ColorScheme-Highlight" transform="matrix(0,-1,-1,0,62,30)"/><path style="fill:currentColor" d="m -15,38 c 0,-6 6,-6 6,-6 v 6 z" class="ColorScheme-Highlight" transform="matrix(0,-1,-1,0,62,30)"/></g><g id="right" transform="rotate(90,18,33)"><rect style="opacity:.25;fill:currentColor" width="12" height="12" x="12" y="15" class="ColorScheme-Highlight"/><rect style="opacity:.5;fill:currentColor" width="12" height="9" x="12" y="18" class="ColorScheme-Highlight"/><rect style="fill:currentColor" width="12" height="6" x="12" y="21" class="ColorScheme-Highlight"/></g><g id="bottomleft"><path style="opacity:.25;fill:currentColor" d="M -21,38 C -21,26 -9,26 -9,26 v 12 z" class="ColorScheme-Highlight" transform="rotate(-90,2,28)"/><path style="opacity:.5;fill:currentColor" d="m -18,38 c 0,-9 9,-9 9,-9 v 9 z" class="ColorScheme-Highlight" transform="rotate(-90,2,28)"/><path style="fill:currentColor" d="m -15,38 c 0,-6 6,-6 6,-6 v 6 z" class="ColorScheme-Highlight" transform="rotate(-90,2,28)"/></g><g id="left" transform="matrix(0,1,1,0,-15,15)"><rect style="opacity:.25;fill:currentColor" width="12" height="12" x="12" y="15" class="ColorScheme-Highlight"/><rect style="opacity:.5;fill:currentColor" width="12" height="9" x="12" y="18" class="ColorScheme-Highlight"/><rect style="fill:currentColor" width="12" height="6" x="12" y="21" class="ColorScheme-Highlight"/></g><g id="bottom" transform="matrix(1,0,0,-1,0,66)"><rect style="opacity:.25;fill:currentColor" width="12" height="12" x="12" y="15" class="ColorScheme-Highlight"/><rect style="opacity:.5;fill:currentColor" width="12" height="9" x="12" y="18" class="ColorScheme-Highlight"/><rect style="fill:currentColor" width="12" height="6" x="12" y="21" class="ColorScheme-Highlight"/></g></svg>