<svg xmlns="http://www.w3.org/2000/svg" width="102" height="34" version="1.1"><defs id="materia"><style id="current-color-scheme" type="text/css">.ColorScheme-Text{color:#dfdfdf}</style></defs><path id="hover-center" d="M 62,6 V 28 H 40 V 6 Z" class="ColorScheme-Text" style="opacity:.08;fill:currentColor"/><g id="hover-left"><path style="opacity:.001" d="M 0,6 H 6 V 28 H 0 Z" transform="translate(34)"/><path style="opacity:.08;fill:currentColor" d="M 2,6 H 6 V 28 H 2 Z" class="ColorScheme-Text" transform="translate(34)"/></g><g id="hover-topleft"><path style="opacity:.001" d="M 0,0 H 6 V 6 H 0 Z" transform="translate(34)"/><path style="opacity:.08;fill:currentColor" d="M 6,2 V 6 H 2 C 2,2 6,2 6,2 Z" class="ColorScheme-Text" transform="translate(34)"/></g><g id="hover-right"><path style="opacity:.001" d="m 28,6 h 6 v 22 h -6 z" transform="translate(34)"/><path style="opacity:.08;fill:currentColor" d="m 28,6 h 4 v 22 h -4 z" class="ColorScheme-Text" transform="translate(34)"/></g><g id="hover-top"><path style="opacity:.001" d="M 28,0 V 6 H 6 V 0 Z" transform="translate(34)"/><path style="opacity:.08;fill:currentColor" d="M 28,2 V 6 H 6 V 2 Z" class="ColorScheme-Text" transform="translate(34)"/></g><g id="hover-bottom"><path style="opacity:.001" d="m 28,28 v 6 H 6 v -6 z" transform="translate(34)"/><path style="opacity:.08;fill:currentColor" d="m 28,28 v 4 H 6 v -4 z" class="ColorScheme-Text" transform="translate(34)"/></g><g id="hover-bottomright"><path style="opacity:.001" d="m 28,28 h 6 v 6 h -6 z" transform="translate(34)"/><path style="opacity:.08;fill:currentColor" d="m 28,32 v -4 h 4 c 0,4 -4,4 -4,4 z" class="ColorScheme-Text" transform="translate(34)"/></g><g id="hover-topright"><path style="opacity:.001" d="m 28,0 h 6 v 6 h -6 z" transform="translate(34)"/><path style="opacity:.08;fill:currentColor" d="m 28,2 v 4 h 4 C 32,2 28,2 28,2 Z" class="ColorScheme-Text" transform="translate(34)"/></g><g id="hover-bottomleft"><path style="opacity:.001" d="m 0,28 h 6 v 6 H 0 Z" transform="translate(34)"/><path style="opacity:.08;fill:currentColor" d="M 6,32 V 28 H 2 c 0,4 4,4 4,4 z" class="ColorScheme-Text" transform="translate(34)"/></g><path id="normal-center" fill="transparent" d="M 28,6 V 28 H 6 V 6 Z"/><g id="normal-left"><path style="opacity:.001" d="M 0,6 H 6 V 28 H 0 Z"/><path fill="transparent" d="M 2,6 H 6 V 28 H 2 Z"/></g><g id="normal-topleft"><path style="opacity:.001" d="M 0,0 H 6 V 6 H 0 Z"/><path fill="transparent" d="M 6,2 V 6 H 2 C 2,2 6,2 6,2 Z"/></g><g id="normal-right"><path style="opacity:.001" d="m 28,6 h 6 v 22 h -6 z"/><path fill="transparent" d="m 28,6 h 4 v 22 h -4 z"/></g><g id="normal-top"><path style="opacity:.001" d="M 28,0 V 6 H 6 V 0 Z"/><path fill="transparent" d="M 28,2 V 6 H 6 V 2 Z"/></g><g id="normal-bottom"><path style="opacity:.001" d="m 28,28 v 6 H 6 v -6 z"/><path fill="transparent" d="m 28,28 v 4 H 6 v -4 z"/></g><g id="normal-bottomright"><path style="opacity:.001" d="m 28,28 h 6 v 6 h -6 z"/><path fill="transparent" d="m 28,32 v -4 h 4 c 0,4 -4,4 -4,4 z"/></g><g id="normal-topright"><path style="opacity:.001" d="m 28,0 h 6 v 6 h -6 z"/><path fill="transparent" d="m 28,2 v 4 h 4 C 32,2 28,2 28,2 Z"/></g><g id="normal-bottomleft"><path style="opacity:.001" d="m 0,28 h 6 v 6 H 0 Z"/><path fill="transparent" d="M 6,32 V 28 H 2 c 0,4 4,4 4,4 z"/></g><path id="pressed-center" d="M 96,6 V 28 H 74 V 6 Z" class="ColorScheme-Text" style="opacity:.16;fill:currentColor"/><g id="pressed-left"><path style="opacity:.001" d="M 0,6 H 6 V 28 H 0 Z" transform="translate(68)"/><path style="opacity:.16;fill:currentColor" d="M 2,6 H 6 V 28 H 2 Z" class="ColorScheme-Text" transform="translate(68)"/></g><g id="pressed-topleft"><path style="opacity:.001" d="M 0,0 H 6 V 6 H 0 Z" transform="translate(68)"/><path style="opacity:.16;fill:currentColor" d="M 6,2 V 6 H 2 C 2,2 6,2 6,2 Z" class="ColorScheme-Text" transform="translate(68)"/></g><g id="pressed-right"><path style="opacity:.001" d="m 28,6 h 6 v 22 h -6 z" transform="translate(68)"/><path style="opacity:.16;fill:currentColor" d="m 28,6 h 4 v 22 h -4 z" class="ColorScheme-Text" transform="translate(68)"/></g><g id="pressed-top"><path style="opacity:.001" d="M 28,0 V 6 H 6 V 0 Z" transform="translate(68)"/><path style="opacity:.16;fill:currentColor" d="M 28,2 V 6 H 6 V 2 Z" class="ColorScheme-Text" transform="translate(68)"/></g><g id="pressed-bottom"><path style="opacity:.001" d="m 28,28 v 6 H 6 v -6 z" transform="translate(68)"/><path style="opacity:.16;fill:currentColor" d="m 28,28 v 4 H 6 v -4 z" class="ColorScheme-Text" transform="translate(68)"/></g><g id="pressed-bottomright"><path style="opacity:.001" d="m 28,28 h 6 v 6 h -6 z" transform="translate(68)"/><path style="opacity:.16;fill:currentColor" d="m 28,32 v -4 h 4 c 0,4 -4,4 -4,4 z" class="ColorScheme-Text" transform="translate(68)"/></g><g id="pressed-topright"><path style="opacity:.001" d="m 28,0 h 6 v 6 h -6 z" transform="translate(68)"/><path style="opacity:.16;fill:currentColor" d="m 28,2 v 4 h 4 C 32,2 28,2 28,2 Z" class="ColorScheme-Text" transform="translate(68)"/></g><g id="pressed-bottomleft"><path style="opacity:.001" d="m 0,28 h 6 v 6 H 0 Z" transform="translate(68)"/><path style="opacity:.16;fill:currentColor" d="M 6,32 V 28 H 2 c 0,4 4,4 4,4 z" class="ColorScheme-Text" transform="translate(68)"/></g><path id="normal-hint-top-margin" d="m 16,0 h 2 v 6 h -2 z" style="fill:#f0f"/><path id="normal-hint-bottom-margin" d="m 16,28 h 2 v 6 h -2 z" style="fill:#f0f"/><path id="normal-hint-left-margin" d="m 0,16 h 6.0000002 v 2 H 0 Z" style="fill:#f0f"/><path id="normal-hint-right-margin" d="m 28,16 h 6 v 2 h -6 z" style="fill:#f0f"/><path id="hover-hint-top-margin" d="m 50,0 h 2 v 6 h -2 z" style="fill:#f0f"/><path id="hover-hint-bottom-margin" d="m 50,28 h 2 v 6 h -2 z" style="fill:#f0f"/><path id="hover-hint-left-margin" d="m 34,16 h 6 v 2 h -6 z" style="fill:#f0f"/><path id="hover-hint-right-margin" d="m 62,16 h 6 v 2 h -6 z" style="fill:#f0f"/><path id="pressed-hint-top-margin" d="m 84,0 h 2 v 6 h -2 z" style="fill:#f0f"/><path id="pressed-hint-bottom-margin" d="m 84,28 h 2 v 6 h -2 z" style="fill:#f0f"/><path id="pressed-hint-left-margin" d="m 68,16 h 6 v 2 h -6 z" style="fill:#f0f"/><path id="pressed-hint-right-margin" d="m 96,16 h 6 v 2 h -6 z" style="fill:#f0f"/></svg>