<svg xmlns="http://www.w3.org/2000/svg" width="13" height="23" version="1"><defs id="materia"><style id="current-color-scheme" type="text/css">.ColorScheme-Highlight{color:#4285f4}.ColorScheme-Text{color:#dfdfdf}</style></defs><path id="normal-left" d="M 9.5e-6,0.99899995 V 5.998999 h 1 V 0.99899995 Z" class="ColorScheme-Text" style="opacity:.08;fill:currentColor"/><path id="normal-right" d="M 13.000009,0.99899995 V 5.998999 h -1 V 0.99899995 Z" class="ColorScheme-Text" style="opacity:.08;fill:currentColor"/><rect id="normal-bottom" width="11" height="1" x="1" y="6" class="ColorScheme-Text" style="opacity:.08;fill:currentColor"/><path id="normal-top" d="m 1.0000095,-0.00100005 v 1 H 11.999983 v -1 z" class="ColorScheme-Text" style="opacity:.08;fill:currentColor"/><path id="hover-left" d="M 9.5e-6,8.999001 V 13.999 h 1 V 8.999001 Z" class="ColorScheme-Highlight" style="opacity:.5;fill:currentColor"/><path id="hover-right" d="M 13.000009,8.999001 V 13.999 h -1 V 8.999001 Z" class="ColorScheme-Highlight" style="opacity:.5;fill:currentColor"/><path id="hover-top" d="M 1.0000095,7.999 V 8.997752 H 11.999988 V 7.999 Z" class="ColorScheme-Highlight" style="opacity:.5;fill:currentColor"/><path id="active-left" d="m 0,16.999 v 4.999999 H 1 V 16.999 Z" class="ColorScheme-Highlight" style="opacity:.8;fill:currentColor"/><path id="active-right" d="m 12.999999,16.999 v 4.999999 h -1 V 16.999 Z" class="ColorScheme-Highlight" style="opacity:.8;fill:currentColor"/><rect id="active-bottom" width="11" height="1.001" x="1" y="22" class="ColorScheme-Highlight" style="opacity:.8;fill:currentColor"/><path id="active-top" d="m 1,15.999 v 1 h 10.999977 v -1 z" class="ColorScheme-Highlight" style="opacity:.8;fill:currentColor"/><rect id="normal-center" width="11" height="5" x="1" y="-6" class="ColorScheme-Text" transform="scale(1,-1)" style="opacity:.08;fill:currentColor"/><rect id="active-center" width="11" height="5" x="1" y="-22" class="ColorScheme-Highlight" transform="scale(1,-1)" style="opacity:.8;fill:currentColor"/><rect id="hover-center" width="11" height="5" x="1" y="-14" class="ColorScheme-Highlight" transform="scale(1,-1)" style="opacity:.5;fill:currentColor"/><g id="hover-bottom" transform="matrix(2.1999957,0,0,0.99875155,-1.1999862,-2.447941)"><rect style="opacity:.5;fill:currentColor" width="5" height="1.001" x="1" y="16.47" class="ColorScheme-Highlight"/></g><path id="hover-bottomleft" d="m 9.5e-6,13.999 c 0,0.552285 0.4477153,1 1,1 v -1 z" class="ColorScheme-Highlight" style="opacity:.5;fill:currentColor"/><path id="hover-topleft" d="m 9.5e-6,8.999 c 0,-0.552285 0.4477153,-1 1,-1 v 1 z" class="ColorScheme-Highlight" style="opacity:.5;fill:currentColor"/><path id="hover-topright" d="m 13.000009,8.999 c 0,-0.552285 -0.447715,-1 -1,-1 v 1 z" class="ColorScheme-Highlight" style="opacity:.5;fill:currentColor"/><path id="hover-bottomright" d="m 13.000009,13.999 c 0,0.552285 -0.447715,1 -1,1 v -1 z" class="ColorScheme-Highlight" style="opacity:.5;fill:currentColor"/><path id="normal-bottomleft" d="m 9.5e-6,5.999 c 0,0.552285 0.4477153,1 1,1 v -1 z" class="ColorScheme-Text" style="opacity:.08;fill:currentColor"/><path id="normal-topleft" d="m 9.5e-6,0.99899995 c 0,-0.552285 0.4477153,-1 1,-1 v 1 z" class="ColorScheme-Text" style="opacity:.08;fill:currentColor"/><path id="normal-topright" d="m 13.000009,0.99899995 c 0,-0.552285 -0.447715,-1 -1,-1 v 1 z" class="ColorScheme-Text" style="opacity:.08;fill:currentColor"/><path id="normal-bottomright" d="m 13.000009,5.999 c 0,0.552285 -0.447715,1 -1,1 v -1 z" class="ColorScheme-Text" style="opacity:.08;fill:currentColor"/><path id="active-bottomleft" d="m 9.5e-6,21.999 c 0,0.552285 0.4477153,1 1,1 v -1 z" class="ColorScheme-Highlight" style="opacity:.8;fill:currentColor"/><path id="active-topleft" d="m 9.5e-6,16.999 c 0,-0.552285 0.4477153,-1 1,-1 v 1 z" class="ColorScheme-Highlight" style="opacity:.8;fill:currentColor"/><path id="active-topright" d="m 13.000009,16.999 c 0,-0.552285 -0.447715,-1 -1,-1 v 1 z" class="ColorScheme-Highlight" style="opacity:.8;fill:currentColor"/><path id="active-bottomright" d="m 13.000009,21.999 c 0,0.552285 -0.447715,1 -1,1 v -1 z" class="ColorScheme-Highlight" style="opacity:.8;fill:currentColor"/></svg>