<svg xmlns="http://www.w3.org/2000/svg" width="76" height="66" version="1.1"><defs id="materia"><style id="current-color-scheme" type="text/css">.ColorScheme-Highlight{color:#4285f4}.ColorScheme-Text{color:#dfdfdf}</style></defs><rect id="hint-tile-center" width="2" height="2" x="0" y="36" style="fill:#f0f"/><path id="groove-bottomright" d="m 7,53 v 1 h 1 v -1 z" class="ColorScheme-Text" style="opacity:.3;fill:currentColor"/><path id="groove-right" d="m 7,51 v 1 h 1 v -1 z" class="ColorScheme-Text" style="opacity:.3;fill:currentColor"/><path id="groove-topright" d="m 7,49 v 1 h 1 v -1 z" class="ColorScheme-Text" style="opacity:.3;fill:currentColor"/><path id="groove-bottomleft" d="m 3,53 v 1 h 1 v -1 z" class="ColorScheme-Text" style="opacity:.3;fill:currentColor"/><path id="groove-left" d="m 3,51 v 1 h 1 v -1 z" class="ColorScheme-Text" style="opacity:.3;fill:currentColor"/><path id="groove-topleft" d="M 4,49 H 3 v 1 h 1 z" class="ColorScheme-Text" style="opacity:.3;fill:currentColor"/><path id="groove-bottom" d="m 5,53 v 1 h 1 v -1 z" class="ColorScheme-Text" style="opacity:.3;fill:currentColor"/><path id="groove-center" d="M 6,51 H 5 v 1 h 1 z" class="ColorScheme-Text" style="opacity:.3;fill:currentColor"/><path id="groove-top" d="m 5,49 v 1 h 1 v -1 z" class="ColorScheme-Text" style="opacity:.3;fill:currentColor"/><path id="groove-highlight-bottomright" d="m 7,62 v 1 h 1 v -1 z" class="ColorScheme-Highlight" style="fill:currentColor"/><path id="groove-highlight-right" d="m 7,60 v 1 h 1 v -1 z" class="ColorScheme-Highlight" style="fill:currentColor"/><path id="groove-highlight-topright" d="m 7,58 v 1 h 1 v -1 z" class="ColorScheme-Highlight" style="fill:currentColor"/><path id="groove-highlight-bottomleft" d="m 3,62 v 1 h 1 v -1 z" class="ColorScheme-Highlight" style="fill:currentColor"/><path id="groove-highlight-left" d="m 3,60 v 1 h 1 v -1 z" class="ColorScheme-Highlight" style="fill:currentColor"/><path id="groove-highlight-topleft" d="M 4,58 H 3 v 1 h 1 z" class="ColorScheme-Highlight" style="fill:currentColor"/><path id="groove-highlight-bottom" d="m 5,62 v 1 h 1 v -1 z" class="ColorScheme-Highlight" style="fill:currentColor"/><path id="groove-highlight-center" d="M 6,60 H 5 v 1 h 1 z" class="ColorScheme-Highlight" style="fill:currentColor"/><path id="groove-highlight-top" d="m 5,58 v 1 h 1 v -1 z" class="ColorScheme-Highlight" style="fill:currentColor"/><g id="horizontal-slider-handle" transform="matrix(0.6875,0,0,0.6875,-7.187504,41.250002)"><rect style="opacity:0" width="32" height="32" x="25" y="4"/><circle style="fill:currentColor" cx="41" cy="20" r="7.273" class="ColorScheme-Highlight"/></g><g id="horizontal-slider-hover" transform="matrix(0.6875,0,0,0.6875,14.8125,41.25)"><rect style="opacity:0" width="32" height="32" x="25" y="4"/><circle style="opacity:.2;fill:currentColor" cx="41" cy="20" r="16" class="ColorScheme-Highlight"/><circle style="fill:currentColor" cx="41" cy="20" r="7.273" class="ColorScheme-Highlight"/></g><g id="horizontal-slider-focus" transform="matrix(0.6875,0,0,0.6875,36.8125,41.25)"><rect style="opacity:0" width="32" height="32" x="25" y="4"/><circle style="opacity:.3;fill:currentColor" cx="41" cy="20" r="16" class="ColorScheme-Highlight"/><circle style="fill:currentColor" cx="41" cy="20" r="7.273" class="ColorScheme-Highlight"/></g><g id="vertical-slider-handle" transform="matrix(0.6875,0,0,0.6875,-7.1875,19.25)"><rect style="opacity:0" width="32" height="32" x="25" y="4"/><circle style="fill:currentColor" cx="41" cy="20" r="7.273" class="ColorScheme-Highlight"/></g><g id="vertical-slider-hover" transform="matrix(0.6875,0,0,0.6875,14.8125,19.25)"><rect style="opacity:0" width="32" height="32" x="25" y="4"/><circle style="opacity:.2;fill:currentColor" cx="41" cy="20" r="16" class="ColorScheme-Highlight"/><circle style="fill:currentColor" cx="41" cy="20" r="7.273" class="ColorScheme-Highlight"/></g><g id="vertical-slider-focus" transform="matrix(0.6875,0,0,0.6875,36.8125,19.25)"><rect style="opacity:0" width="32" height="32" x="25" y="4"/><circle style="opacity:.3;fill:currentColor" cx="41" cy="20" r="16" class="ColorScheme-Highlight"/><circle style="fill:currentColor" cx="41" cy="20" r="7.273" class="ColorScheme-Highlight"/></g><circle id="hint-handle-size" cx="65" cy="11" r="11" style="fill:#f0f"/></svg>