<svg xmlns="http://www.w3.org/2000/svg" width="225" height="286" version="1.1"><defs id="materia"><style id="current-color-scheme" type="text/css">.ColorScheme-Highlight{color:#4285f4}</style></defs><rect id="hint-tile-center" width="40" height="40" x="0" y="0" style="fill:#f0f"/><g id="south-active-tab-top"><path style="fill:currentColor" d="m 40,359.36218 h 80 v 3 H 40 Z" class="ColorScheme-Highlight" transform="matrix(1,0,0,0.66617697,36.00001,28.604839)"/></g><g id="south-active-tab-topleft" transform="matrix(1,0,0,0.66617697,36.00001,28.604839)"><rect style="fill:none" width="10" height="3" x="30" y="359.36"/><path style="fill:currentColor" d="m 39.999989,359.36221 v 2.99998 c -4.002873,10e-6 -6.999999,-1.1e-4 -6.999999,-1.1e-4 0,0 0,-0.50072 0,-1 1e-6,-0.60192 0,-2 0,-2 0,0 3.407671,1.2e-4 6.999999,1.3e-4 z" class="ColorScheme-Highlight"/></g><g id="south-active-tab-topright" transform="matrix(1,0,0,0.66617697,36.00001,28.604839)"><rect style="fill:none" width="10" height="3" x="120" y="359.36"/><path style="fill:currentColor" d="m 119.99999,359.36221 c 3.67335,-1e-5 7,-1.3e-4 7,-1.3e-4 0,0 0,0.91846 0,1.50012 0,0.54321 0,1.49988 0,1.49988 0,0 -3.17283,1.2e-4 -7,1.1e-4 z" class="ColorScheme-Highlight"/></g><rect id="south-active-tab-left" width="10" height="12" x="66" y="270" style="fill:none"/><rect id="south-active-tab-center" width="80" height="12" x="76" y="270" style="fill:none"/><rect id="south-active-tab-right" width="10" height="12" x="156" y="270" style="fill:none"/><rect id="south-active-tab-bottomright" width="10" height="4" x="156" y="282" style="fill:none"/><rect id="south-active-tab-bottom" width="80" height="4" x="76" y="282" style="fill:none"/><rect id="south-active-tab-bottomleft" width="10" height="4" x="66" y="282" style="fill:none"/><rect id="south-active-tab-hint-left-margin" width="6" height="5" x="66" y="273" style="fill:#f0f"/><rect id="south-active-tab-hint-right-margin" width="6" height="5" x="160" y="273" style="fill:#f0f"/><rect id="south-active-tab-hint-top-margin" width="5" height="8" x="114" y="268" style="fill:#f0f"/><rect id="south-active-tab-hint-bottom-margin" width="5" height="4" x="114" y="282" style="fill:#f0f"/><rect id="east-active-tab-bottom" width="10" height="12" x="-201.7" y="209" transform="rotate(-90)" style="fill:none"/><rect id="east-active-tab-center" width="80" height="12" x="-191.7" y="209" transform="rotate(-90)" style="fill:none"/><rect id="east-active-tab-top" width="10" height="12" x="-111.7" y="209" transform="rotate(-90)" style="fill:none"/><rect id="east-active-tab-topright" width="10" height="4" x="-111.7" y="221" transform="rotate(-90)" style="fill:none"/><rect id="east-active-tab-right" width="80" height="4" x="-191.7" y="221" transform="rotate(-90)" style="fill:none"/><rect id="east-active-tab-bottomright" width="10" height="4" x="-201.7" y="221" transform="rotate(-90)" style="fill:none"/><rect id="east-active-tab-hint-bottom-margin" width="6" height="5" x="-202" y="212" transform="rotate(-90)" style="fill:#f0f"/><rect id="east-active-tab-hint-top-margin" width="6" height="5" x="-108" y="212" transform="rotate(-90)" style="fill:#f0f"/><g id="east-active-tab-left"><path style="fill:currentColor" d="m 40,359.36218 h 80 v 3 H 40 Z" class="ColorScheme-Highlight" transform="matrix(0,1,-0.66570362,0,446.22559,72.002199)"/></g><rect id="east-active-tab-hint-left-margin" width="5" height="8" x="-148" y="205" transform="rotate(-90)" style="fill:#f0f"/><rect id="east-active-tab-hint-right-margin" width="5" height="4" x="-148" y="221" transform="rotate(-90)" style="fill:#f0f"/><rect id="west-active-tab-top" width="10" height="12" x="102" y="-16" transform="rotate(90)" style="fill:none"/><rect id="west-active-tab-center" width="80" height="12" x="112" y="-16" transform="rotate(90)" style="fill:none"/><rect id="west-active-tab-bottom" width="10" height="12" x="192" y="-16" transform="rotate(90)" style="fill:none"/><rect id="west-active-tab-bottomleft" width="10" height="4" x="192" y="-4" transform="rotate(90)" style="fill:none"/><rect id="west-active-tab-left" width="80" height="4" x="112" y="-4" transform="rotate(90)" style="fill:none"/><rect id="west-active-tab-topleft" width="10" height="4" x="102" y="-4" transform="rotate(90)" style="fill:none"/><rect id="west-active-tab-hint-top-margin" width="6" height="5" x="102" y="-13" transform="rotate(90)" style="fill:#f0f"/><rect id="west-active-tab-hint-bottom-margin" width="6" height="5" x="196" y="-13" transform="rotate(90)" style="fill:#f0f"/><g id="west-active-tab-right"><path style="fill:currentColor" d="m 40,359.36218 h 80 v 3 H 40 Z" class="ColorScheme-Highlight" transform="matrix(0,1,-0.6661771,0,258.39739,72.002199)"/></g><g id="west-active-tab-topright" transform="matrix(0,1,-0.6661771,0,258.39739,72.002199)"><rect style="fill:none" width="10" height="3" x="30" y="359.36"/><path style="fill:currentColor" d="m 39.999989,359.36221 v 2.99998 c -3.767297,0 -7.000108,0 -7.000108,0 0,0 1.1e-4,-0.94183 1.1e-4,-1.5 4e-6,-0.45273 -1.1e-4,-1.5 -1.1e-4,-1.5 0,0 2.811044,10e-6 7.000108,2e-5 z" class="ColorScheme-Highlight"/></g><g id="west-active-tab-bottomright" transform="matrix(0,1,-0.6661771,0,258.39739,72.002199)"><rect style="fill:none" width="10" height="3" x="120" y="359.36"/><path style="fill:currentColor" d="m 119.99999,359.36221 c 4.70659,-2e-5 6.99989,-2e-5 6.99989,-2e-5 0,0 1.1e-4,1.17665 1.1e-4,1.5 0,0.55726 -1.1e-4,1.5 -1.1e-4,1.5 0,0 -3.22893,0 -6.99989,0 z" class="ColorScheme-Highlight"/></g><rect id="west-active-tab-hint-right-margin" width="5" height="8" x="143" y="-19" transform="rotate(90)" style="fill:#f0f"/><rect id="west-active-tab-hint-left-margin" width="5" height="4" x="143" y="-4" transform="rotate(90)" style="fill:#f0f"/><rect id="north-active-tab-right" width="10" height="12" x="-173" y="-62" transform="scale(-1)" style="fill:none"/><rect id="north-active-tab-center" width="80" height="12" x="-163" y="-62" transform="scale(-1)" style="fill:none"/><rect id="north-active-tab-left" width="10" height="12" x="-83" y="-62" transform="scale(-1)" style="fill:none"/><rect id="north-active-tab-topleft" width="10" height="4" x="-83" y="-50" transform="scale(-1)" style="fill:none"/><rect id="north-active-tab-top" width="80" height="4" x="-163" y="-50" transform="scale(-1)" style="fill:none"/><rect id="north-active-tab-topright" width="10" height="4" x="-173" y="-50" transform="scale(-1)" style="fill:none"/><rect id="north-focus-hint-right-margin" width="6" height="5" x="-173" y="-59" transform="scale(-1)" style="fill:#f0f"/><rect id="north-focus-hint-left-margin" width="6" height="5" x="-79" y="-59" transform="scale(-1)" style="fill:#f0f"/><g id="north-active-tab-bottom"><path style="fill:currentColor" d="m 40,359.36218 h 80 v 3 H 40 Z" class="ColorScheme-Highlight" transform="matrix(1,0,0,0.66617489,43,-175.39439)"/></g><rect id="north-focus-hint-bottom-margin" width="5" height="8" x="-119" y="-66" transform="scale(-1)" style="fill:#f0f"/><rect id="north-focus-hint-top-margin" width="5" height="4" x="-119" y="-50" transform="scale(-1)" style="fill:#f0f"/><g id="north-active-tab-bottomleft" transform="matrix(1,0,0,0.66617489,43,-175.39439)"><rect style="fill:none" width="10" height="3" x="30" y="359.36"/><path style="fill:currentColor" d="m 39.999989,359.36221 v 2.99998 c -3.409947,0 -6.999989,-1.2e-4 -6.999989,-1.2e-4 0,0 -6e-6,-0.85237 -1.1e-5,-1.49988 4e-6,-0.61099 1.1e-5,-1.50012 1.1e-5,-1.50012 0,0 7,0 6.999989,1.4e-4 z" class="ColorScheme-Highlight"/></g><g id="north-active-tab-bottomright" transform="matrix(1,0,0,0.66617489,-200,-87.459301)"><rect style="fill:none" width="10" height="3" x="363" y="227.36"/><rect style="fill:none" width="10" height="3" x="363" y="227.36"/><path style="fill:currentColor" d="m 363,227.36221 c 4.05485,-2e-5 7,-1.5e-4 7,-1.5e-4 0,0 0,1.01383 0,1.50012 0,0.61168 0,1.49988 0,1.49988 0,0 -3.44673,1.2e-4 -7,1.3e-4 z" class="ColorScheme-Highlight"/></g><g id="east-active-tab-topleft" transform="matrix(0,1,-0.66570362,0,446.22559,72.002199)"><rect style="fill:none" width="10" height="3" x="30" y="359.36"/><path style="fill:currentColor" d="m 39.999989,359.36221 v 2.99998 c -4.1908,0.003 -7.000108,2.3e-4 -7.000108,2.3e-4 0,0 0.0047,-1.11514 1.08e-4,-1.58523 0.007,-0.63828 -1.08e-4,-1.41477 -1.08e-4,-1.41477 0,0 3.798335,-0.007 7.000108,-2.1e-4 z" class="ColorScheme-Highlight"/></g><g id="east-active-tab-bottomleft" transform="matrix(0,1,-0.66570362,0,446.22559,72.002199)"><rect style="fill:none" width="10" height="3" x="120" y="359.36"/><path style="fill:currentColor" d="m 119.99999,359.36221 c 3.69017,0.002 6.99989,2.1e-4 6.99989,2.1e-4 0,0 1.1e-4,0.87118 1.1e-4,1.41477 -10e-4,0.51392 -1.1e-4,1.58523 -1.1e-4,1.58523 0,0 -2.97246,-0.0104 -6.99989,-2.3e-4 z" class="ColorScheme-Highlight"/></g></svg>