<svg xmlns="http://www.w3.org/2000/svg" xmlns:xlink="http://www.w3.org/1999/xlink" width="228" height="84" version="1"><defs id="materia"><style id="current-color-scheme" type="text/css">.ColorScheme-ViewBackground{color:#242424}</style></defs><g id="center"><rect style="fill:currentColor" width="50" height="50" x="7" y="27" class="ColorScheme-ViewBackground"/></g><g id="topleft"><path style="fill:currentColor" d="m 190.00001,251.99982 v 7 h -7 v -2 c 0,-2.77 2.23,-5 5,-5 z" class="ColorScheme-ViewBackground" transform="translate(-183,-231.99995)"/></g><g id="left"><path style="fill:currentColor" d="m 183.00002,258.99981 v 50 l 7,10e-6 v -50 z" class="ColorScheme-ViewBackground" transform="translate(-183,-231.99995)"/></g><g id="right"><path style="fill:currentColor" d="m 247,258.99982 v 50 l -7,10e-6 v -50 z" class="ColorScheme-ViewBackground" transform="translate(-183,-231.99995)"/></g><g id="bottomleft"><path style="fill:currentColor" d="m 190.00001,315.99991 v -7 h -7 v 2 c 0,2.77 2.23,5 5,5 z" class="ColorScheme-ViewBackground" transform="translate(-183,-231.99995)"/></g><g id="bottom"><path style="fill:currentColor" d="M 189.99998,315.99995 H 240 v -7 h -50.00001 z" class="ColorScheme-ViewBackground" transform="translate(-183,-231.99995)"/></g><g id="bottomright"><path style="fill:currentColor" d="m 240,315.99991 v -7 h 7 v 2 c 0,2.77 -2.23,5 -5,5 z" class="ColorScheme-ViewBackground" transform="translate(-183,-231.99995)"/></g><g id="topright"><path style="fill:currentColor" d="m 240,251.99982 v 7 h 7 v -2 c 0,-2.77 -2.23,-5 -5,-5 z" class="ColorScheme-ViewBackground" transform="translate(-183,-231.99995)"/></g><g id="top"><path style="fill:currentColor" d="M 189.99998,251.99982 H 240 v 7 h -50.00001 z" class="ColorScheme-ViewBackground" transform="translate(-183,-231.99995)"/></g><rect id="hint-top-margin" width="4" height="7" x="29" y="27" style="fill:#f0f"/><rect id="hint-bottom-margin" width="4" height="7" x="29" y="70" style="fill:#f0f"/><rect id="hint-left-margin" width="7" height="4" x="7" y="49" style="fill:#f0f"/><rect id="hint-right-margin" width="7" height="4" x="50" y="49" style="fill:#f0f"/><rect id="hint-tile-center" width="5" height="5" x="0" y="2" style="fill:#f0f"/><rect id="mask-center" width="50" height="50" x="79" y="20" style="fill:#000"/><path id="mask-topleft" d="M 79,6 V 19.99998 H 65 V 15.999986 C 65,10.459994 69.459994,6 74.999986,6 Z" style="fill:#000"/><path id="mask-left" d="m 65,19.99998 v 50 l 14,1e-5 v -50 z" style="fill:#000"/><path id="mask-right" d="m 143.00001,20 v 50 l -14,1e-5 v -50 z" style="fill:#000"/><path id="mask-bottomleft" d="M 79.000008,83.99998 V 70 h -14 v 3.999994 c 0,5.539992 4.459994,9.999986 9.999986,9.999986 z" style="fill:#000"/><path id="mask-bottom" d="M 78.999998,84 H 129.00001 V 70 H 79.000008 Z" style="fill:#000"/><path id="mask-bottomright" d="M 129.00001,84 V 70 h 14 v 4 c 0,5.54 -4.46,10 -10,10 z" style="fill:#000"/><path id="mask-topright" d="m 129.00001,6 v 14 h 14 v -4 c 0,-5.54 -4.46,-10 -10,-10 z" style="fill:#000"/><path id="mask-top" d="m 79,6 h 50.00001 v 14 h -50 z" style="fill:#000"/></svg>