<svg xmlns="http://www.w3.org/2000/svg" id="svg2" width="384" height="384" version="1.1"><path id="rect4140" d="M 170.93555 0 L 170 38.921875 L 170 229.91016 L 230 220.5625 L 230 171.72266 L 272.09766 231.86328 L 381.31641 384 L 384 384 L 384 0 L 170.93555 0 z" style="fill:#1e1e1e"/><path id="path4140" d="m 220,48.99759 -40,3.9784 0,170.25601 40,-6.232 0,-72 56,80 47.544,-16 -63.544,-72 64,-72.00001 -48,-16 L 220,129 220,48.99759 Z" style="opacity:.05"/><path id="path4141" d="m 220,47.99759 -40,3.9784 0,170.25601 40,-6.232 0,-72 56,80 47.544,-16 -63.544,-72 64,-72.00001 -48,-16 L 220,128 220,47.99759 Z" style="opacity:.05"/><path id="path4139" d="m 220,46.99759 -40,3.9784 0,170.25601 40,-6.232 0,-72 56,80 47.544,-16 -63.544,-72 64,-72.00001 -48,-16 L 220,127 220,46.99759 Z" style="opacity:.05"/><path id="path4137" d="m 220,45.99759 -40,3.9784 0,170.25601 40,-6.232 0,-72 56,80 47.544,-16 -63.544,-72 64,-72.00001 -48,-16 L 220,126 220,45.99759 Z" style="opacity:.05"/><path id="path4135" d="m 220,44.99759 -40,3.9784 0,170.25601 40,-6.232 0,-72 56,80 47.544,-16 -63.544,-72 64,-72.00001 -48,-16 L 220,125 220,44.99759 Z" style="opacity:.05"/><path id="path14" d="m 220,43.99759 -40,3.9784 0,170.25601 40,-6.232 0,-72 56,80 47.544,-16 -63.544,-72 64,-72.00001 -48,-16 L 220,124 220,43.99759 Z" style="fill:#fff"/></svg>