<svg xmlns="http://www.w3.org/2000/svg" width="69" height="25" version="1"><rect id="hint-tile-center" width="2" height="2" x="0" y="0" rx="0" ry="2" style="fill:#f0f"/><rect id="separator" width="40" height="1" x="82" y="29" transform="scale(1,-1)" style="opacity:.001"/><path id="normal-center" d="M 29,10.00034 V 21.00035 H 39.999999 V 10.00034 Z" style="opacity:.001"/><path id="normal-right" d="m 40,10.00034 v 11.00001 h 2 c 6.68e-4,-0.0184 0,-0.0344 0,-0.0529 V 10.05321 c 0,-0.0185 6.68e-4,-0.0345 0,-0.0529 h -2 z" style="opacity:.001"/><path id="normal-top" d="m 29,8.0003 v 2.00004 H 39.999999 V 8.0003 c -0.0041,-6.7e-4 0.0042,0 10e-7,0 H 29.01186 c -0.004,0 -0.008,-6.7e-4 -0.0119,0 z" style="opacity:.001"/><path id="normal-left" d="m 27.0003,10.00034 c -6.7e-4,0.0183 0,0.0344 0,0.0529 v 10.89423 c 0,0.0185 -6.7e-4,0.0345 0,0.0529 h 2 v -11 h -2 z" style="opacity:.001"/><path id="normal-bottom" d="m 29,21 v 2 h 11 v -1.99966 z" style="opacity:.001"/><path id="normal-topleft" d="m 26.999967,8.0003 v 2.00004 h 1.999771 V 8.0003 c -7.46e-4,-6.7e-4 7.63e-4,0 0,0 h -1.997614 c -7.28e-4,0 -0.0015,-6.7e-4 -0.0022,0 z" style="opacity:.001"/><path id="normal-topright" d="m 40.000007,8.00064 v 1.9997 h 1.999771 v -1.9997 c -7.46e-4,-6.7e-4 7.63e-4,0 0,0 h -1.997614 c -7.28e-4,0 -0.0015,-6.7e-4 -0.0022,0 z" style="opacity:.001"/><path id="normal-bottomright" d="M 40.000007,21.0003 V 23 h 1.999771 v -1.9997 c -7.46e-4,-6.7e-4 7.63e-4,0 0,0 h -1.997614 c -7.28e-4,0 -0.0015,-6.7e-4 -0.0022,0 z" style="opacity:.001"/><path id="normal-bottomleft" d="M 27.000007,21.0003 V 23 h 1.999771 v -1.9997 c -7.46e-4,-6.7e-4 7.63e-4,0 0,0 h -1.997614 c -7.28e-4,0 -0.0015,-6.7e-4 -0.0022,0 z" style="opacity:.001"/><path id="pressed-center" d="M 3.9997,10.00001 V 21.00002 H 14.999699 V 10.00001 Z" style="opacity:.2;fill:#fff"/><path id="pressed-right" d="m 14.9997,10.00001 v 11.00001 h 2 c 6.68e-4,-0.0183 0,-0.0344 0,-0.0529 V 10.05289 c 0,-0.0185 6.68e-4,-0.0345 0,-0.0529 h -2 z" style="opacity:.2;fill:#fff"/><path id="pressed-top" d="m 3.9997,7.99997 v 2.00004 H 14.999699 V 7.99997 c -0.0041,-6.7e-4 0.0045,0 3.01e-4,0 H 4.01156 c -0.004,0 -0.008,-6.7e-4 -0.0119,0 z" style="opacity:.2;fill:#fff"/><path id="pressed-left" d="m 2,10.00001 c -6.7e-4,0.0183 0,0.0344 0,0.0529 v 10.89423 c 0,0.0185 -6.7e-4,0.0345 0,0.0529 h 2 v -11 H 2 Z" style="opacity:.2;fill:#fff"/><path id="pressed-bottom" d="m 4,21 v 2 h 11 v -2 z" style="opacity:.2;fill:#fff"/><path id="pressed-topleft" d="m 1.999667,7.99997 v 2.00004 H 3.999389 V 7.99997 c -7.45e-4,-6.7e-4 8.18e-4,0 5.5e-5,0 H 2.001823 c -7.27e-4,0 -0.0015,-6.7e-4 -0.0022,0 z" style="opacity:.2;fill:#fff"/><path id="pressed-topright" d="m 15.000044,7.99997 v 2.00004 h 1.999722 V 7.99997 c -7.45e-4,-6.7e-4 8.18e-4,0 5.5e-5,0 H 15.0022 c -7.27e-4,0 -0.0015,-6.7e-4 -0.0022,0 z" style="opacity:.2;fill:#fff"/><path id="pressed-bottomright" d="M 15.000044,20.99995 V 23 h 1.999722 v -2.00005 c -7.45e-4,-6.7e-4 8.18e-4,0 5.5e-5,0 H 15.0022 c -7.27e-4,0 -0.0015,-6.7e-4 -0.0022,0 z" style="opacity:.2;fill:#fff"/><path id="pressed-bottomleft" d="M 2.000044,20.99995 V 23 h 1.999722 v -2.00005 c -7.45e-4,-6.7e-4 8.18e-4,0 5.5e-5,0 H 2.0022 c -7.27e-4,0 -0.0015,-6.7e-4 -0.0022,0 z" style="opacity:.2;fill:#fff"/><path id="section-center" d="M 53.999699,9.999998 V 21 H 64.999698 V 9.999998 Z" style="opacity:.1;fill:#fff"/><path id="section-right" d="M 64.999699,9.999998 V 21 h 2 c 6.68e-4,-0.0183 0,-0.0344 0,-0.0529 V 10.05287 c 0,-0.0185 6.68e-4,-0.0345 0,-0.0529 h -2 z" style="opacity:.1;fill:#fff"/><path id="section-top" d="m 53.999699,7.999948 v 2.00005 h 10.999999 v -2.00005 c -0.0041,-6.7e-4 0.0042,0 1e-6,0 h -10.98814 c -0.004,0 -0.008,-6.7e-4 -0.0119,0 z" style="opacity:.1;fill:#fff"/><path id="section-left" d="m 51.999999,9.999998 c -6.7e-4,0.0183 0,0.0344 0,0.0529 v 10.89423 c 0,0.0185 -6.7e-4,0.0345 0,0.0529 h 2 v -11 h -2 z" style="opacity:.1;fill:#fff"/><path id="section-bottom" d="m 53.999699,20.99966 v 2 h 11 V 21 Z" style="opacity:.1;fill:#fff"/><path id="section-topleft" d="m 51.999666,7.999948 v 2.00005 h 1.999771 v -2.00005 c -7.46e-4,-6.7e-4 7.63e-4,0 0,0 h -1.997614 c -7.28e-4,0 -0.0015,-6.7e-4 -0.0022,0 z" style="opacity:.1;fill:#fff"/><path id="section-topright" d="m 64.999706,8.000298 v 1.9997 h 1.999771 v -1.9997 c -7.46e-4,-6.7e-4 7.63e-4,0 0,0 h -1.997614 c -7.28e-4,0 -0.0015,-6.7e-4 -0.0022,0 z" style="opacity:.1;fill:#fff"/><path id="section-bottomright" d="m 64.999706,20.99995 v 1.99971 h 1.999771 v -1.99971 c -7.46e-4,-6.7e-4 7.63e-4,0 0,0 h -1.997614 c -7.28e-4,0 -0.0015,-6.7e-4 -0.0022,0 z" style="opacity:.1;fill:#fff"/><path id="section-bottomleft" d="m 51.999706,20.99995 v 1.99971 h 1.999771 v -1.99971 c -7.46e-4,-6.7e-4 7.63e-4,0 0,0 h -1.997614 c -7.28e-4,0 -0.0015,-6.7e-4 -0.0022,0 z" style="opacity:.1;fill:#fff"/><rect id="section-hint-top-margin" width="1" height="4" x="59" y="6" style="fill:#f0f"/><rect id="section-hint-left-margin" width="4" height="1" x="50" y="15" style="fill:#f0f"/><rect id="section-hint-right-margin" width="4" height="1" x="65" y="15" style="fill:#f0f"/><rect id="section-hint-bottom-margin" width="1" height="4" x="59" y="21" style="fill:#f0f"/><path id="hover-center" d="m 69.9997,-70.61584 v 11 h 10.999999 v -11 z" style="opacity:.001"/><path id="hover-right" d="m 80.9997,-70.61584 v 11 h 2 c 6.68e-4,-0.0183 0,-0.0344 0,-0.0529 v -10.89423 c 0,-0.0185 6.68e-4,-0.0345 0,-0.0529 h -2 z" style="opacity:.001"/><path id="hover-top" d="m 69.9997,-72.61589 v 2.00005 h 10.999999 v -2.00005 c -0.0041,-6.7e-4 0.0045,0 3.01e-4,0 H 70.01156 c -0.004,0 -0.008,-6.7e-4 -0.0119,0 z" style="opacity:.001"/><path id="hover-left" d="m 68,-70.61584 c -6.7e-4,0.0183 0,0.0344 0,0.0529 v 10.89423 c 0,0.0185 -6.7e-4,0.0345 0,0.0529 h 2 v -11.00001 h -2 z" style="opacity:.001"/><path id="hover-bottom" d="m 70,-59.61586 v 2 h 11 v -2 z" style="opacity:.001"/><path id="hover-topleft" d="m 67.999667,-72.61589 v 2.00005 h 1.999722 v -2.00005 c -7.45e-4,-6.7e-4 8.18e-4,0 5.5e-5,0 h -1.997621 c -7.27e-4,0 -0.0015,-6.7e-4 -0.0022,0 z" style="opacity:.001"/><path id="hover-topright" d="m 81.000044,-72.61589 v 2.00005 h 1.999722 v -2.00005 c -7.45e-4,-6.7e-4 8.18e-4,0 5.5e-5,0 H 81.0022 c -7.27e-4,0 -0.0015,-6.7e-4 -0.0022,0 z" style="opacity:.001"/><path id="hover-bottomright" d="m 81.000044,-59.6159 v 2.00004 h 1.999722 v -2.00004 c -7.45e-4,-6.7e-4 8.18e-4,0 5.5e-5,0 H 81.0022 c -7.27e-4,0 -0.0015,-6.7e-4 -0.0022,0 z" style="opacity:.001"/><path id="hover-bottomleft" d="m 68.000044,-59.6159 v 2.00004 h 1.999722 v -2.00004 c -7.45e-4,-6.7e-4 8.18e-4,0 5.5e-5,0 H 68.0022 c -7.27e-4,0 -0.0015,-6.7e-4 -0.0022,0 z" style="opacity:.001"/><rect id="pressed-hint-left-margin" width="4" height="1" x="0" y="15" style="fill:#f0f"/><rect id="pressed-hint-right-margin" width="4" height="1" x="15" y="15" style="fill:#f0f"/><rect id="pressed-hint-top-margin" width="1" height="4" x="9" y="6" style="fill:#f0f"/><rect id="pressed-hint-bottom-margin" width="1" height="4" x="9" y="21" style="fill:#f0f"/><rect id="normal-hint-top-margin" width="1" height="4" x="34" y="6" style="fill:#f0f"/><rect id="normal-hint-bottom-margin" width="1" height="4" x="34" y="21" style="fill:#f0f"/><rect id="normal-hint-left-margin" width="4" height="1" x="25" y="15" style="fill:#f0f"/><rect id="normal-hint-right-margin" width="4" height="1" x="40" y="15" style="fill:#f0f"/></svg>