<svg xmlns="http://www.w3.org/2000/svg" width="236" height="102" version="1"><rect id="hint-tile-center" width="40" height="40" x="0" y="0" style="fill:#f0f"/><path id="selected-center" d="m 124.00002,49.99996 v 48 h 47.99999 v -48 z" style="opacity:.24;fill:#8ab4f8"/><g id="selected-left"><path style="opacity:.24;fill:#8ab4f8" d="m 186.14285,829.85712 v 16 h 4 v -16 z" transform="matrix(1,0,0,3.0009825,-66.142836,-2440.4026)"/></g><g id="selected-topleft"><path style="opacity:.24;fill:#8ab4f8" d="m 186.14285,829.8571 h 4 v -4 h -1.46875 c -1.40502,0 -2.53125,1.11588 -2.53125,2.53125 z" transform="translate(-66.142836,-779.87294)"/></g><g id="selected-top"><path style="opacity:.24;fill:#8ab4f8" d="m 190.14286,825.85714 v 4 h 131 v -4 z" transform="matrix(0.36657704,0,0,1,54.288008,-779.85716)"/></g><g id="selected-topright"><path style="opacity:.24;fill:#8ab4f8" d="m 321.14285,825.85714 v 4 h 4 v -1.46875 c 0,-1.40502 -1.11588,-2.53125 -2.53125,-2.53125 z" transform="translate(-149.14284,-779.85716)"/></g><g id="selected-right"><path style="opacity:.24;fill:#8ab4f8" d="m 325.14286,829.85712 v 16 h -4 v -16 z" transform="matrix(1,0,0,3.0000017,-149.14284,-2439.5728)"/></g><path id="hover-center" d="m 64,49.99972 v 48 h 48 v -48 z" style="opacity:.08;fill:#fff"/><g id="hover-left"><path style="opacity:.08;fill:#fff" d="m 186.14285,829.85712 v 16 h 4 v -16 z" transform="matrix(1,0,0,3.0009825,-126.14285,-2440.4028)"/></g><g id="hover-topleft"><path style="opacity:.08;fill:#fff" d="m 186.14285,829.8571 h 4 v -4 h -1.46875 c -1.40502,0 -2.53125,1.11588 -2.53125,2.53125 z" transform="translate(-126.14285,-779.85766)"/></g><g id="hover-top"><path style="opacity:.08;fill:#fff" d="m 190.14286,825.85714 v 4 h 131 v -4 z" transform="matrix(0.36657704,0,0,1,-5.71201,-779.8574)"/></g><g id="hover-topright"><path style="opacity:.08;fill:#fff" d="m 321.14285,825.85714 v 4 h 4 v -1.46875 c 0,-1.40502 -1.11588,-2.53125 -2.53125,-2.53125 z" transform="translate(-209.14285,-779.8574)"/></g><g id="hover-right"><path style="opacity:.08;fill:#fff" d="m 325.14286,829.85712 v 16 h -4 v -16 z" transform="matrix(1,0,0,3.0000017,-209.14285,-2439.573)"/></g><path id="selected+hover-center" d="m 184.00001,49.99994 v 48 h 48 v -48 z" style="opacity:.5;fill:#8ab4f8"/><g id="selected+hover-left"><path style="opacity:.5;fill:#8ab4f8" d="m 186.14285,829.85712 v 16 h 4 v -16 z" transform="matrix(1,0,0,3.0009825,-6.14284,-2440.4026)"/></g><g id="selected+hover-topleft"><path style="opacity:.5;fill:#8ab4f8" d="m 186.14285,829.8571 h 4 v -4 h -1.46875 c -1.40502,0 -2.53125,1.11588 -2.53125,2.53125 z" transform="translate(-6.14284,-779.87296)"/></g><g id="selected+hover-top"><path style="opacity:.5;fill:#8ab4f8" d="m 190.14286,825.85714 v 4 h 131 v -4 z" transform="matrix(0.36657704,0,0,1,114.288,-779.85718)"/></g><g id="selected+hover-topright"><path style="opacity:.5;fill:#8ab4f8" d="m 321.14285,825.85714 v 4 h 4 v -1.46875 c 0,-1.40502 -1.11588,-2.53125 -2.53125,-2.53125 z" transform="translate(-89.142844,-779.85718)"/></g><g id="selected+hover-right"><path style="opacity:.5;fill:#8ab4f8" d="m 325.14286,829.85712 v 16 h -4 v -16 z" transform="matrix(1,0,0,3.0000017,-89.142844,-2439.5728)"/></g><g id="selected-bottomright"><path style="opacity:.24;fill:#8ab4f8" d="m 186.14285,829.8571 h 4 v -4 h -1.46875 c -1.40502,0 -2.53125,1.11588 -2.53125,2.53125 z" transform="rotate(180,181.07144,463.92852)"/></g><g id="selected-bottom"><path style="opacity:.24;fill:#8ab4f8" d="m 190.14286,825.85714 v 4 h 131 v -4 z" transform="matrix(-0.36657704,0,0,-1,241.72361,927.85714)"/></g><g id="selected-bottomleft"><path style="opacity:.24;fill:#8ab4f8" d="m 321.14285,825.85714 v 4 h 4 v -1.46875 c 0,-1.40502 -1.11588,-2.53125 -2.53125,-2.53125 z" transform="rotate(180,222.57143,463.92857)"/></g><g id="hover-bottomright"><path style="opacity:.08;fill:#fff" d="m 186.14285,829.8571 h 4 v -4 h -1.46875 c -1.40502,0 -2.53125,1.11588 -2.53125,2.53125 z" transform="rotate(180,151.07143,463.92847)"/></g><g id="hover-bottom"><path style="opacity:.08;fill:#fff" d="m 190.14286,825.85714 v 4 h 131 v -4 z" transform="matrix(-0.36657704,0,0,-1,181.7236,927.85714)"/></g><g id="hover-bottomleft"><path style="opacity:.08;fill:#fff" d="m 321.14285,825.85714 v 4 h 4 v -1.46875 c 0,-1.40502 -1.11588,-2.53125 -2.53125,-2.53125 z" transform="rotate(180,192.57143,463.92842)"/></g><g id="selected_hover-bottomright"><path style="opacity:.5;fill:#8ab4f8" d="m 186.14285,829.8571 h 4 v -4 h -1.46875 c -1.40502,0 -2.53125,1.11588 -2.53125,2.53125 z" transform="rotate(180,211.07144,463.92855)"/></g><g id="selected_hover-bottom"><path style="opacity:.5;fill:#8ab4f8" d="m 190.14286,825.85714 v 4 h 131 v -4 z" transform="matrix(-0.36657704,0,0,-1,301.72361,927.857)"/></g><g id="selected_hover-bottomleft"><path style="opacity:.5;fill:#8ab4f8" d="m 321.14285,825.85714 v 4 h 4 v -1.46875 c 0,-1.40502 -1.11588,-2.53125 -2.53125,-2.53125 z" transform="rotate(180,252.57143,463.92855)"/></g><path id="normal-center" d="M 3.998459,50.01459 V 98.00112 H 51.979955 V 50.01459 Z" style="opacity:.001"/><path id="normal-left" d="M 0,49.99888 V 98.00112 H 3.998459 V 49.99888 Z" style="opacity:.001"/><path id="normal-topleft" d="M 0,49.99888 H 3.998459 V 46 H 2.530275 C 1.125796,46 0,47.11557 0,48.53054 Z" style="opacity:.001"/><path id="normal-top" d="m 3.998459,46.01572 v 3.99887 h 48.003086 v -3.99887 z" style="opacity:.001"/><path id="normal-topright" d="m 52.001545,46.01572 v 3.99887 h 3.99845 v -1.46833 c 0,-1.40463 -1.11545,-2.53054 -2.53027,-2.53054 z" style="opacity:.001"/><path id="normal-right" d="m 55.999995,50.01459 v 47.98656 h -3.99845 V 50.01459 Z" style="opacity:.001"/><path id="normal-bottomright" d="m 55.999995,98.00112 h -3.99845 V 102 h 1.46818 c 1.40448,0 2.53027,-1.11557 2.53027,-2.53054 z" style="opacity:.001"/><path id="normal-bottom" d="M 52.001545,102 V 98.00112 H 3.998459 V 102 Z" style="opacity:.001"/><path id="normal-bottomleft" d="M 3.998459,102 V 98.00112 H 0 v 1.46834 C 0,100.87409 1.11545,102 2.530275,102 Z" style="opacity:.001"/></svg>