<svg xmlns="http://www.w3.org/2000/svg" width="32" height="32" version="1.1"><defs id="materia"><style id="current-color-scheme" type="text/css">.ColorScheme-Text{color:#dfdfdf}</style></defs><g id="22-22-list-add"><path style="opacity:.001" d="m 285.00081,-5.00334 h 22 v 22 h -22 z" transform="translate(-285.00081,-16.99666)"/><path style="fill:currentColor" d="M 9,3 V 9 H 3 v 4 h 6 v 6 h 4 v -6 h 6 V 9 H 13 V 3 Z" class="ColorScheme-Text" transform="translate(-285.00081,-16.99666) translate(285.00081,-5.00334)"/></g><g id="list-add"><path style="opacity:.001" d="M -4.318145e-6,-4.8197e-7 H 31.999997 V 32.000001 H -4.318145e-6 Z" transform="translate(3.6590725e-6)"/><path style="fill:currentColor" d="m 13,4 v 9 H 4.0000001 v 6 H 13 v 9 h 6 v -9 h 9 V 13 H 19 V 4 Z" class="ColorScheme-Text" transform="translate(3.6590725e-6)"/></g><g id="22-22-list-remove"><path style="opacity:.001" d="m 285.00081,-5.00334 h 22 v 22 h -22 z" transform="translate(-253.00081,-16.99666)"/><path style="fill:currentColor" d="m 3,9 v 4 H 19 V 9 Z" class="ColorScheme-Text" transform="translate(-253.00081,-16.99666) translate(285.00081,-5.00334)"/></g><g id="list-remove"><path style="opacity:.001" d="M -4.318145e-6,-4.8197e-7 H 31.999997 V 32.000001 H -4.318145e-6 Z" transform="translate(32.000005)"/><path style="fill:currentColor" d="m 4.0000001,13 v 6 H 28 v -6 z" class="ColorScheme-Text" transform="translate(32.000005)"/></g></svg>