<svg xmlns="http://www.w3.org/2000/svg" xmlns:xlink="http://www.w3.org/1999/xlink" width="228" height="84" version="1"><defs id="materia"><linearGradient id="linearGradient917"><stop style="stop-color:#000;stop-opacity:.3019608" offset="0"/><stop style="stop-color:#000;stop-opacity:0" offset="1"/></linearGradient><radialGradient id="radialGradient4263" cx="984" cy="905.362" r="8.5" fx="984" fy="905.362" gradientTransform="matrix(-1.6470755,3.9528159e-6,-3.9529412e-6,-1.6471277,1781.726,1558.2423)" gradientUnits="userSpaceOnUse" xlink:href="#linearGradient917"/><radialGradient id="radialGradient4255" cx="982.909" cy="906.453" r="8.5" fx="982.909" fy="906.453" gradientTransform="matrix(1.647081,9.196599e-6,-9.1956677e-6,1.6469142,-1407.9227,-1475.8606)" gradientUnits="userSpaceOnUse" xlink:href="#linearGradient917"/><linearGradient id="linearGradient4259" x1="83.6" x2="83.6" y1="-969.362" y2="-955.363" gradientTransform="matrix(0.71428571,0,0,1,-317.71429,1250.3622)" gradientUnits="userSpaceOnUse" xlink:href="#linearGradient917"/><linearGradient id="linearGradient4452" x1="-260" x2="-260" y1="281" y2="295" gradientUnits="userSpaceOnUse" xlink:href="#linearGradient917"/><radialGradient id="radialGradient3382" cx="984" cy="905.362" r="8.5" fx="984" fy="905.362" gradientTransform="matrix(2.1648928e-6,1.6471842,-1.647042,2.1647059e-6,1702.1673,-1553.8323)" gradientUnits="userSpaceOnUse" xlink:href="#linearGradient917"/><radialGradient id="radialGradient4275" cx="984" cy="905.362" r="8.5" fx="984" fy="905.362" gradientTransform="matrix(7.6230467e-6,-1.646942,1.6470463,7.6235294e-6,-1330.1807,1637.5831)" gradientUnits="userSpaceOnUse" xlink:href="#linearGradient917"/><linearGradient id="linearGradient4315" x1="83.6" x2="83.6" y1="-969.362" y2="-955.362" gradientTransform="matrix(0.71428571,0,0,1,-317.71429,1250.3622)" gradientUnits="userSpaceOnUse" xlink:href="#linearGradient917"/><linearGradient id="linearGradient4317" x1="83.6" x2="83.6" y1="-969.362" y2="-955.361" gradientTransform="matrix(0.71428571,0,0,1,-317.71429,1250.3622)" gradientUnits="userSpaceOnUse" xlink:href="#linearGradient917"/><style id="current-color-scheme" type="text/css">.ColorScheme-ViewBackground{color:#242424}</style></defs><g id="center"><rect style="fill:currentColor" width="50" height="50" x="7" y="27" class="ColorScheme-ViewBackground"/></g><g id="topleft"><path style="fill:currentColor" d="m 190.00001,251.99982 v 7 h -7 v -2 c 0,-2.77 2.23,-5 5,-5 z" class="ColorScheme-ViewBackground" transform="translate(-183,-231.99995)"/></g><g id="left"><path style="fill:currentColor" d="m 183.00002,258.99981 v 50 l 7,10e-6 v -50 z" class="ColorScheme-ViewBackground" transform="translate(-183,-231.99995)"/></g><g id="right"><path style="fill:currentColor" d="m 247,258.99982 v 50 l -7,10e-6 v -50 z" class="ColorScheme-ViewBackground" transform="translate(-183,-231.99995)"/></g><g id="bottomleft"><path style="fill:currentColor" d="m 190.00001,315.99991 v -7 h -7 v 2 c 0,2.77 2.23,5 5,5 z" class="ColorScheme-ViewBackground" transform="translate(-183,-231.99995)"/></g><g id="bottom"><path style="fill:currentColor" d="M 189.99998,315.99995 H 240 v -7 h -50.00001 z" class="ColorScheme-ViewBackground" transform="translate(-183,-231.99995)"/></g><g id="bottomright"><path style="fill:currentColor" d="m 240,315.99991 v -7 h 7 v 2 c 0,2.77 -2.23,5 -5,5 z" class="ColorScheme-ViewBackground" transform="translate(-183,-231.99995)"/></g><g id="topright"><path style="fill:currentColor" d="m 240,251.99982 v 7 h 7 v -2 c 0,-2.77 -2.23,-5 -5,-5 z" class="ColorScheme-ViewBackground" transform="translate(-183,-231.99995)"/></g><g id="top"><path style="fill:currentColor" d="M 189.99998,251.99982 H 240 v 7 h -50.00001 z" class="ColorScheme-ViewBackground" transform="translate(-183,-231.99995)"/></g><rect id="hint-top-margin" width="4" height="7" x="29" y="27" style="fill:#f0f"/><rect id="hint-bottom-margin" width="4" height="7" x="29" y="70" style="fill:#f0f"/><rect id="hint-left-margin" width="7" height="4" x="7" y="49" style="fill:#f0f"/><rect id="hint-right-margin" width="7" height="4" x="50" y="49" style="fill:#f0f"/><rect id="hint-tile-center" width="5" height="5" x="0" y="2" style="fill:#f0f"/><path id="shadow-topleft" d="m 144.00001,16.998965 h 10 v -2 c 0,-2.77 2.23,-5.0000004 5,-5.0000004 h 2 v -9.99999996 h -17 z" style="fill:url(#radialGradient4275);fill-opacity:1"/><g id="shadow-left" transform="matrix(-1,0,0,1,442.00001,-240.00103)"><rect style="fill:url(#linearGradient4315);fill-opacity:1" width="50" height="10" x="-307" y="288" transform="rotate(-90)"/><rect style="opacity:0" width="7" height="1" x="278" y="257" transform="translate(3,2)"/></g><path id="shadow-bottomright" d="m 228.00001,66.998965 h -10 v 2 c 0,2.77 -2.23,5 -5,5 h -2 v 10 h 17 z" style="fill:url(#radialGradient3382);fill-opacity:1"/><g id="shadow-bottom" transform="rotate(90,341.00052,126.9995)"><rect style="fill:url(#linearGradient4317);fill-opacity:1" width="50" height="10" x="-307" y="288" transform="rotate(-90)"/><rect style="opacity:0" width="7" height="1" x="278" y="257" transform="translate(3,2)"/></g><g id="shadow-right" transform="translate(-69.999994,-240.00103)"><rect style="fill:url(#linearGradient4452);fill-opacity:1" width="50" height="10" x="-307" y="288" transform="rotate(-90)"/><rect style="opacity:0" width="7" height="1" x="278" y="257" transform="translate(3,2)"/></g><g id="shadow-top" transform="matrix(0,-1,-1,0,468.00001,297.99896)"><rect style="fill:url(#linearGradient4259)" width="50" height="10" x="-307" y="288" transform="rotate(-90)"/><rect style="opacity:0" width="7" height="1" x="278" y="257" transform="translate(3,2)"/></g><path id="shadow-topright" d="M 211.00001,-0.00103536 V 9.9989646 h 2 c 2.77,0 5,2.2300004 5,5.0000004 v 2 h 10 V -0.00103536 Z" style="fill:url(#radialGradient4255);fill-opacity:1"/><path id="shadow-bottomleft" d="m 161.00001,83.998965 v -10 h -2 c -2.77,0 -5,-2.23 -5,-5 v -2 h -10 v 17 z" style="fill:url(#radialGradient4263);fill-opacity:1"/><rect id="shadow-hint-right-margin" width="10" height="4" x="218" y="40" style="fill:#f0f"/><rect id="shadow-hint-bottom-margin" width="4" height="10" x="184" y="74" style="fill:#f0f"/><rect id="shadow-hint-left-margin" width="10" height="4" x="144" y="40" style="fill:#f0f"/><rect id="shadow-hint-top-margin" width="4" height="10" x="185" y="0" style="fill:#f0f"/><rect id="mask-center" width="50" height="50" x="79" y="20" style="fill:#000"/><path id="mask-topleft" d="M 79,6 V 19.99998 H 65 V 15.999986 C 65,10.459994 69.459994,6 74.999986,6 Z" style="fill:#000"/><path id="mask-left" d="m 65,19.99998 v 50 l 14,1e-5 v -50 z" style="fill:#000"/><path id="mask-right" d="m 143.00001,20 v 50 l -14,1e-5 v -50 z" style="fill:#000"/><path id="mask-bottomleft" d="M 79.000008,83.99998 V 70 h -14 v 3.999994 c 0,5.539992 4.459994,9.999986 9.999986,9.999986 z" style="fill:#000"/><path id="mask-bottom" d="M 78.999998,84 H 129.00001 V 70 H 79.000008 Z" style="fill:#000"/><path id="mask-bottomright" d="M 129.00001,84 V 70 h 14 v 4 c 0,5.54 -4.46,10 -10,10 z" style="fill:#000"/><path id="mask-topright" d="m 129.00001,6 v 14 h 14 v -4 c 0,-5.54 -4.46,-10 -10,-10 z" style="fill:#000"/><path id="mask-top" d="m 79,6 h 50.00001 v 14 h -50 z" style="fill:#000"/><rect id="shadow-center" width="50" height="50" x="161" y="17.06" style="fill:none"/></svg>